<svg xmlns="http://www.w3.org/2000/svg" viewBox="0 0 54.93 60.25"><defs><style>.cls-1{fill:#d5b696;}</style></defs><g id="Layer_2" data-name="Layer 2"><g id="Layer_1-2" data-name="Layer 1"><path class="cls-1" d="M40.12,33.13C33.83,26.6,20.43,19,11.91,15.71,24.21,18.28,36.83,23,46.1,31.51c.66-5.53,0-12.08-5-17C30.55,3.9,19.46,10.84.4,0-1.16,11.83,1.67,28.44,12.27,39c7.89,7.89,22.82,4.87,29,3.38a29.29,29.29,0,0,1,6.45,14.76A3.58,3.58,0,0,0,52.54,60h0a3.64,3.64,0,0,0,2.19-4.61C51.51,46.29,46.75,40,40.12,33.13Z"/></g></g></svg>