<svg xmlns="http://www.w3.org/2000/svg" viewBox="0 0 67.12 51.19"><defs><style>.cls-1{fill:#d5b696;}</style></defs><g id="Layer_2" data-name="Layer 2"><g id="Layer_1-2" data-name="Layer 1"><path class="cls-1" d="M65.54,37.84l-6.68-.05,0-8.15A6.68,6.68,0,0,0,59,16.55l.09-13.49,6.68,0a1.33,1.33,0,0,0,1.35-1.32A1.35,1.35,0,0,0,65.79.43L1.67,0A1.35,1.35,0,0,0,.32,1.33,1.34,1.34,0,0,0,1.65,2.67l6.68.05L8.24,16.21A6.68,6.68,0,0,0,8.15,29.3L8.1,37.45,1.42,37.4A1.35,1.35,0,0,0,.07,38.73L0,49.42a1.33,1.33,0,0,0,1.33,1.34l64.12.43a1.32,1.32,0,0,0,1.34-1.32l.07-10.69A1.32,1.32,0,0,0,65.54,37.84ZM56.33,16.53a6.68,6.68,0,0,0-.09,13.09l-.05,8.15-21.38-.14.06-8.15A6.68,6.68,0,0,0,35,16.39L35.05,2.9,56.42,3ZM10.82,29.32a6.68,6.68,0,0,0,.09-13.09L11,2.73l21.38.15-.1,13.49a6.68,6.68,0,0,0-.08,13.09l-.06,8.15-21.37-.14Z"/></g></g></svg>