<svg xmlns="http://www.w3.org/2000/svg" viewBox="0 0 50.63 70.25"><defs><style>.cls-1{fill:#d5b696;}</style></defs><g id="Layer_2" data-name="Layer 2"><g id="Layer_1-2" data-name="Layer 1"><path class="cls-1" d="M23.2,43.19Z"/><path class="cls-1" d="M27.34,43.19Z"/><path class="cls-1" d="M50.34,1a2,2,0,0,0-1.78-1H2.05A2,2,0,0,0,.28,1a2.07,2.07,0,0,0,0,2.07l23,40.08V66.11H15.51a2.07,2.07,0,1,0,0,4.14H35.18a2.07,2.07,0,1,0,0-4.14H27.42V43.19l23-40.08A2.26,2.26,0,0,0,50.34,1Zm-10,11.16c-5.7-.07-7.92,1.48-15.09,3.33-4.73,1.26-9.83.52-13.38-.3L5.53,4.14H44.94Z"/></g></g></svg>