<svg xmlns="http://www.w3.org/2000/svg" viewBox="0 0 77 77"><defs><style>.cls-1{fill:#d5b696;}.cls-2{fill:#fff;}</style></defs><g id="Layer_2" data-name="Layer 2"><g id="Layer_1-2" data-name="Layer 1"><circle class="cls-1" cx="38.5" cy="38.5" r="38.5"/><path class="cls-2" d="M20.08,38.07a13.86,13.86,0,0,0,3.69-.93,10.71,10.71,0,0,0,2.86-1.72A7.87,7.87,0,0,0,28.5,33.1a5.91,5.91,0,0,0,.66-2.73,5,5,0,0,0-.5-2.2,5.51,5.51,0,0,0-1.41-1.78,6.74,6.74,0,0,0-2.18-1.2,8.23,8.23,0,0,0-2.78-.44,6.3,6.3,0,0,0-2.16.38,8.76,8.76,0,0,0-1.94,1,8.65,8.65,0,0,0-1.64,1.44,9.76,9.76,0,0,0-1.24,1.69L14,28.53a12.92,12.92,0,0,1,1.55-3,11,11,0,0,1,2.3-2.37,10.8,10.8,0,0,1,3-1.56A11.07,11.07,0,0,1,24.34,21a9.94,9.94,0,0,1,3.44.58,8.89,8.89,0,0,1,2.78,1.57,7.41,7.41,0,0,1,1.88,2.36,6.41,6.41,0,0,1,.69,2.95,8.19,8.19,0,0,1-.24,1.87,7.91,7.91,0,0,1-.82,2.05,9.91,9.91,0,0,1-1.53,2,10.1,10.1,0,0,1-2.39,1.77,8,8,0,0,1,2.69,1.35A10.67,10.67,0,0,1,33,39.76a11.47,11.47,0,0,1,1.48,2.76,8.78,8.78,0,0,1,.54,3A12,12,0,0,1,33.87,51a10.91,10.91,0,0,1-3.27,3.89,14.59,14.59,0,0,1-4.91,2.32,23.6,23.6,0,0,1-6.15.77,8.82,8.82,0,0,1-4.14-.81,2.39,2.39,0,0,1-1.5-2.09,1.86,1.86,0,0,1,.22-1,1.7,1.7,0,0,1,.58-.61,2.23,2.23,0,0,1,.76-.32,3.63,3.63,0,0,1,.78-.1,4.6,4.6,0,0,1,2.05.43,14.76,14.76,0,0,1,1.55.88,11,11,0,0,0,1.54.81,5.72,5.72,0,0,0,2.29.39,9.51,9.51,0,0,0,3.5-.6,7.26,7.26,0,0,0,2.54-1.63,6.88,6.88,0,0,0,1.55-2.34,7.6,7.6,0,0,0,.52-2.76,8.26,8.26,0,0,0-.71-3.41,7.31,7.31,0,0,0-2.15-2.73,10.4,10.4,0,0,0-3.65-1.81,18.21,18.21,0,0,0-5.19-.65Z"/><path class="cls-2" d="M39.53,31.14a16.75,16.75,0,0,1,1.59-4.31,12.11,12.11,0,0,1,2.47-3.18,10,10,0,0,1,3.18-1.94A10.67,10.67,0,0,1,50.53,21a12.37,12.37,0,0,1,4.58.79A9.57,9.57,0,0,1,58.42,24a8.71,8.71,0,0,1,2,3.1,10.56,10.56,0,0,1,.66,3.72,11.41,11.41,0,0,1-.34,2.77,13.67,13.67,0,0,1-1.14,2.9,23.67,23.67,0,0,1-2.05,3.23q-1.26,1.71-3.08,3.73c-1.2,1.35-2.62,2.83-4.23,4.44s-3.46,3.38-5.52,5.31H63l-2.61,4H38.81V55.74Q42.73,52,45.6,49.19t4.89-4.95q2-2.15,3.26-3.72a20.78,20.78,0,0,0,2-2.82,9.84,9.84,0,0,0,.95-2.28,9.06,9.06,0,0,0-.27-5.14,7.64,7.64,0,0,0-1.56-2.62,7.73,7.73,0,0,0-2.58-1.81,8.93,8.93,0,0,0-3.58-.68,7.3,7.3,0,0,0-2.82.54,8.22,8.22,0,0,0-2.33,1.42,8.69,8.69,0,0,0-1.73,2.05,8.91,8.91,0,0,0-1,2.39Z"/></g></g></svg> 