<svg xmlns="http://www.w3.org/2000/svg" viewBox="0 0 93.9 56.2"><defs><style>.cls-1{fill:#d5b696;}</style></defs><g id="Layer_2" data-name="Layer 2"><g id="Layer_1-2" data-name="Layer 1"><path class="cls-1" d="M20.48,23.91a2,2,0,0,0-.21-.2,3.24,3.24,0,0,0-4.42-3.8,5,5,0,0,0-.58-.73,5.52,5.52,0,0,0-9.52,4.3,4.42,4.42,0,0,0-1,.67,4.28,4.28,0,0,0,2.07,7.31,2.89,2.89,0,0,0,.77,2A2.76,2.76,0,0,0,9,34.22l2.2,2.2v4H13v-4l2-2a4.71,4.71,0,0,0,2.76-1.26,4.78,4.78,0,0,0,1.45-4.26,3.09,3.09,0,0,0,1.08-.65A3,3,0,0,0,20.48,23.91Zm-9.25,10a3,3,0,0,0,.41-.32l.06-.07a5.06,5.06,0,0,0,1.06.6l-.66.66Z"/><path class="cls-1" d="M17.14,40.87H7a.79.79,0,0,0-.79.79l1.58,9.27a.79.79,0,0,0,.79.79h7a.79.79,0,0,0,.79-.79l1.58-9.27A.79.79,0,0,0,17.14,40.87Zm-2.55,9.84.21-8.94H16Z"/><polygon class="cls-1" points="55.91 15.19 37.51 11.99 38.45 15.21 53.95 17.91 55.91 15.19"/><path class="cls-1" d="M70.29,2.08C70,1.39,69.26.17,68.36,0s-2,.76-2.51,1.29C51.66-.23,38.93,7,37.52,11.29L93.59,21C93.8,16.25,84.2,5.39,70.29,2.08Z"/><polygon class="cls-1" points="65.82 19.97 72.63 21.15 74.6 18.44 56.2 15.24 57.13 18.46 63.95 19.64 58.29 52.21 0 52.21 0 56.2 93.9 56.2 93.9 52.21 60.21 52.21 65.82 19.97"/><polygon class="cls-1" points="75.82 21.71 91.32 24.4 93.36 21.7 74.89 18.49 75.82 21.71"/><path class="cls-1" d="M31.54,39.74a.57.57,0,0,1-.57-.56V27.71a.57.57,0,0,1,.57-.57H46.06a.56.56,0,0,1,.56.57V39.18a.56.56,0,0,1-.56.56Z"/><path class="cls-1" d="M52.63,31.16h-4.1a.56.56,0,0,0-.56.56V41H29.76V31.72a.57.57,0,0,0-.57-.56h-4.1a.57.57,0,0,0-.57.56V51.16a.57.57,0,0,0,.57.56h4.1a.57.57,0,0,0,.57-.56v-5H48v5a.56.56,0,0,0,.56.57h4.1a.57.57,0,0,0,.57-.57V31.72A.57.57,0,0,0,52.63,31.16ZM27.25,44.27a.71.71,0,1,1,.71-.71A.71.71,0,0,1,27.25,44.27Zm23.25,0a.71.71,0,1,1,.71-.71A.71.71,0,0,1,50.5,44.27Z"/></g></g></svg>