<svg xmlns="http://www.w3.org/2000/svg" viewBox="0 0 62.31 49.57"><defs><style>.cls-1{fill:#d5b696;}</style></defs><g id="Layer_2" data-name="Layer 2"><g id="Layer_1-2" data-name="Layer 1"><path class="cls-1" d="M0,19V16.68a3.22,3.22,0,0,1,3.17-3.17h1.2A5.49,5.49,0,0,1,8,15.15a67.07,67.07,0,0,1,4.72-10A10.9,10.9,0,0,1,20.24.81,61.48,61.48,0,0,1,31.16,0h0a62.36,62.36,0,0,1,10.92.7,11,11,0,0,1,7.51,4.37,67.07,67.07,0,0,1,4.72,10A5.49,5.49,0,0,1,58,13.43h1.2a3.2,3.2,0,0,1,3.16,3.17v2.31A3.34,3.34,0,0,1,59,22.2H57.44c.16.22.32.44.46.67a13.63,13.63,0,0,1,2.25,7.87V46.28a3.29,3.29,0,0,1-3.29,3.29H52.71a3.29,3.29,0,0,1-3.29-3.29V43.81H12.86v2.47a3.29,3.29,0,0,1-3.29,3.29H5.4a3.3,3.3,0,0,1-3.29-3.29V30.81a13.65,13.65,0,0,1,2.25-7.87c.15-.22.3-.45.47-.67H3.29A3.35,3.35,0,0,1,0,19ZM40.81,29.93a2.52,2.52,0,0,0,2.52,2.53h6a2.53,2.53,0,0,0,2.46-2.53V28.37a2.51,2.51,0,0,0-2.5-2.55,2.44,2.44,0,0,0-.66.08l-6,1.56a2.53,2.53,0,0,0-1.85,2.47Zm-30.34,0A2.52,2.52,0,0,0,13,32.46h6a2.52,2.52,0,0,0,.64-4.93l-6-1.56a2.51,2.51,0,0,0-3.08,1.8,2.44,2.44,0,0,0-.08.66Z"/></g></g></svg>