<svg xmlns="http://www.w3.org/2000/svg" viewBox="0 0 70.84 76.77"><defs><style>.cls-1{fill:#d5b696;}</style></defs><g id="Layer_2" data-name="Layer 2"><g id="Layer_1-2" data-name="Layer 1"><path class="cls-1" d="M57.24,68.78V10.69A1.26,1.26,0,0,0,56,9.43H11.37a1.26,1.26,0,0,0-1.26,1.26V68.78A1.26,1.26,0,0,1,8.85,70H1.26A1.25,1.25,0,0,0,0,71.3v4.21a1.25,1.25,0,0,0,1.26,1.26H66.08a1.26,1.26,0,0,0,1.26-1.26V71.3A1.26,1.26,0,0,0,66.08,70H58.5A1.27,1.27,0,0,1,57.24,68.78ZM29.05,63.3H24.84A1.25,1.25,0,0,1,23.58,62V57.83a1.25,1.25,0,0,1,1.26-1.26h4.21a1.25,1.25,0,0,1,1.26,1.26V62A1.25,1.25,0,0,1,29.05,63.3Zm0-16.82H24.84a1.26,1.26,0,0,1-1.26-1.26V41a1.26,1.26,0,0,1,1.26-1.26h4.21A1.26,1.26,0,0,1,30.31,41v4.22A1.26,1.26,0,0,1,29.05,46.48Zm0-16.84H24.84a1.26,1.26,0,0,1-1.26-1.26V24.16a1.26,1.26,0,0,1,1.26-1.26h4.21a1.26,1.26,0,0,1,1.26,1.26v4.22A1.26,1.26,0,0,1,29.05,29.64ZM42.52,63.3H38.3A1.26,1.26,0,0,1,37,62V57.83a1.26,1.26,0,0,1,1.26-1.26h4.22a1.26,1.26,0,0,1,1.26,1.26V62A1.26,1.26,0,0,1,42.52,63.3Zm0-16.82H38.3A1.27,1.27,0,0,1,37,45.22V41a1.27,1.27,0,0,1,1.26-1.26h4.22A1.27,1.27,0,0,1,43.78,41v4.22A1.27,1.27,0,0,1,42.52,46.48Zm0-16.84H38.3A1.27,1.27,0,0,1,37,28.38V24.16A1.27,1.27,0,0,1,38.3,22.9h4.22a1.27,1.27,0,0,1,1.26,1.26v4.22A1.27,1.27,0,0,1,42.52,29.64Z"/><polygon class="cls-1" points="64.69 0 66.59 3.86 70.84 4.47 67.76 7.48 68.49 11.71 64.69 9.71 60.88 11.71 61.61 7.48 58.53 4.47 62.78 3.86 64.69 0"/></g></g></svg>