<svg xmlns="http://www.w3.org/2000/svg" viewBox="0 0 344.86 107.99"><defs><style>.cls-1{fill:#efe5db;}</style></defs><g id="Layer_2" data-name="Layer 2"><g id="Layer_1-2" data-name="Layer 1"><path class="cls-1" d="M72,3.42c-15.7,5.43-17.58,12-17.58,12-6.13,11.5,1.49,25.91,1.49,25.91,15.7-5.44,17.26-11.92,17.26-11.92C79.29,17.88,72,3.42,72,3.42Z" transform="translate(0 -1)"/><path class="cls-1" d="M41.22,102.75H38.94l-30-89.08C6.9,7.87,4.47,1.49,0,1.26H27.53c-2.48.19-3.64,2.33-4.11,3.53a11,11,0,0,0-.73,4.74,25.22,25.22,0,0,0,1.52,7L47.68,86.69" transform="translate(0 -1)"/><path class="cls-1" d="M89,102.72h2.17l30.08-89.3c2-5.81,5.29-12.19,9.76-12.42h-18.1c2.49.19,3.65,2.33,4.12,3.53a11.15,11.15,0,0,1,.73,4.74,25.6,25.6,0,0,1-1.52,7L92.72,86.43" transform="translate(0 -1)"/><path class="cls-1" d="M82.24,45.61a41.18,41.18,0,0,1-11.81,7.27l16.81,49.84h2.08l6.51-16.46Z" transform="translate(0 -1)"/><path class="cls-1" d="M161.25,47.92,151.46,9.33h5.27l4.58,19.53c1.14,4.81,2.17,9.62,2.86,13.34h.11c.63-3.84,1.84-8.42,3.15-13.4l5.16-19.47h5.21l4.69,19.58c1.09,4.58,2.12,9.16,2.69,13.23h.12c.8-4.24,1.88-8.53,3.09-13.34l5.09-19.47h5.1L187.64,47.92h-5.21l-4.86-20.09a113.65,113.65,0,0,1-2.52-12.6h-.12a118.68,118.68,0,0,1-3,12.6l-5.5,20.09Z" transform="translate(0 -1)"/><path class="cls-1" d="M208.43,35.78l-4,12.14h-5.15L212.38,9.33h6l13.17,38.59h-5.33l-4.12-12.14Zm12.65-3.89L217.3,20.78c-.86-2.51-1.43-4.8-2-7h-.12c-.57,2.29-1.2,4.64-1.94,7l-3.78,11.16Z" transform="translate(0 -1)"/><path class="cls-1" d="M244.73,47.92,232.13,9.33h5.38l6,19c1.66,5.21,3.1,9.91,4.13,14.43h.11c1.09-4.47,2.69-9.33,4.41-14.37L258.7,9.33H264l-13.8,38.59Z" transform="translate(0 -1)"/><path class="cls-1" d="M290.24,29.83h-15V43.74H292v4.18h-21.7V9.33H291.1v4.18H275.24v12.2h15Z" transform="translate(0 -1)"/><path class="cls-1" d="M300.49,9.85a51.52,51.52,0,0,1,9.56-.8c5.33,0,8.76,1,11.17,3.15a9.62,9.62,0,0,1,3,7.33A10.12,10.12,0,0,1,317,29.37v.17c3,1,4.75,3.78,5.67,7.79,1.26,5.38,2.17,9.1,3,10.59h-5.16c-.63-1.09-1.49-4.41-2.57-9.22-1.15-5.32-3.21-7.32-7.73-7.5h-4.7V47.92h-5Zm5,17.58h5.1c5.32,0,8.7-2.92,8.7-7.33,0-5-3.61-7.16-8.87-7.22a20.43,20.43,0,0,0-4.93.46Z" transform="translate(0 -1)"/><path class="cls-1" d="M344.86,30.57V34.3H330.72V30.57Z" transform="translate(0 -1)"/><path class="cls-1" d="M155,70.41h5v34.4h16.49V109H155Z" transform="translate(0 -1)"/><path class="cls-1" d="M204,90.9H189v13.91h16.71V109H184V70.41h20.84v4.17H189v12.2h15Z" transform="translate(0 -1)"/><path class="cls-1" d="M223,109V92.62L210.83,70.41h5.67l5.44,10.64c1.49,2.92,2.63,5.27,3.83,8h.12c1.08-2.52,2.4-5,3.89-8l5.55-10.64H241L228.06,92.56V109Z" transform="translate(0 -1)"/></g></g></svg>