<svg xmlns="http://www.w3.org/2000/svg" viewBox="0 0 198 195"><defs><style>.cls-1{fill:#ffe850;}.cls-2{fill:#ce181e;}.cls-3{font-size:22px;fill:#efe5db;font-family:Lato-Bold, Lato Bold;font-weight:700;letter-spacing:0.07em;}</style></defs><g id="Layer_2" data-name="Layer 2"><g id="Layer_1-2" data-name="Layer 1"><path class="cls-1" d="M77.86,116.88c-5.29.62-10.21,1.68-10.21,6.25,0,3.78,3.26,5.37,6.16,5.37a10.39,10.39,0,0,0,7.47-2.91,8.57,8.57,0,0,0,2.29-6v-4a6.77,6.77,0,0,1-2.91.88l-2.8.35Z" transform="translate(0 0)"/><path class="cls-1" d="M150.55,132c-7.29,0-12.18-3.69-12.18-10.55v-.27h4v.19c0,4.48,3.34,7.12,8.18,7.12,2.63,0,7.72-1.14,7.72-5.37,0-8.18-18.91-2.37-18.91-14.08,0-5.89,5.5-8.53,11-8.53,6.51,0,10.87,3.7,10.87,9.68v.26h-3.95v-.26c0-3.87-2.74-6.15-7.13-6.15-3.16,0-6.77,1.31-6.77,4.83,0,7.65,18.91,2.29,18.91,14.08,0,6.24-5.84,9-11.65,9Zm-14.47-.87H132v-41h4.13v41Zm-8.09,0h-4.13v-41H128v41Zm-7.52-37.56v0a2.77,2.77,0,0,1-5.54-.05,2.74,2.74,0,0,1,2.76-2.68,2.78,2.78,0,0,1,2.78,2.73v0Zm-.66,37.56h-4.13V101.41h4.13v29.73Zm-16.27,0H99.22L88.67,101.41h4.59l8.16,25.19,8.08-25.19h4.23l-10.19,29.73Zm-19.27,0a25,25,0,0,1-.43-4.76c-1.5,3.26-4.92,5.63-10.3,5.63-6.16,0-9.84-3.34-9.84-8.8,0-7.91,7.12-8.7,14.06-9.49l1.51-.18c2.8-.36,4.3-.71,4.3-3.78,0-4-2.29-5.71-7.21-5.71-4.13,0-7.47,1.76-7.47,6.24v.26h-4v-.26c0-7,5.54-9.77,11.87-9.77,6.85,0,10.8,2.74,10.8,9.15v16.19a23.24,23.24,0,0,0,.59,5.28ZM49.42,132c-7.22,0-12.12-3.69-12.12-10.55v-.27h4v.19c0,4.48,3.25,7.12,8.17,7.12,2.64,0,7.66-1.14,7.66-5.37,0-8.18-18.82-2.37-18.82-14.08,0-5.89,5.48-8.53,10.94-8.53,6.41,0,10.79,3.7,10.79,9.68v.26H56v-.26c0-3.87-2.72-6.15-7.12-6.15-3.09,0-6.68,1.31-6.68,4.83,0,7.65,18.81,2.29,18.81,14.08,0,6.24-5.84,9-11.63,9ZM169.86,0h-141V141h141V0Z" transform="translate(0 0)"/><path class="cls-2" d="M120.47,93.58v0Z" transform="translate(0 0)"/><path class="cls-2" d="M42.24,108.88c0-3.52,3.59-4.83,6.68-4.83,4.4,0,7.12,2.28,7.12,6.15v.26h4v-.26c0-6-4.38-9.68-10.79-9.68-5.46,0-10.94,2.64-10.94,8.53,0,11.71,18.82,5.9,18.82,14.08,0,4.23-5,5.37-7.66,5.37-4.92,0-8.17-2.64-8.17-7.12v-.19h-4v.27c0,6.86,4.9,10.55,12.12,10.55,5.79,0,11.63-2.81,11.63-9,0-11.79-18.81-6.43-18.81-14.08Z" transform="translate(0 0)"/><path class="cls-2" d="M83.57,119.61a8.57,8.57,0,0,1-2.29,6,10.39,10.39,0,0,1-7.47,2.91c-2.9,0-6.16-1.59-6.16-5.37,0-4.57,4.92-5.63,10.21-6.25l2.8-.35a6.77,6.77,0,0,0,2.91-.88v4Zm4-9.94c0-6.41-3.95-9.15-10.8-9.15-6.33,0-11.87,2.82-11.87,9.77v.26h4v-.26c0-4.48,3.34-6.24,7.47-6.24,4.92,0,7.21,1.76,7.21,5.71,0,3.07-1.5,3.42-4.3,3.78l-1.51.18c-6.94.79-14.06,1.58-14.06,9.49,0,5.46,3.68,8.8,9.84,8.8,5.38,0,8.8-2.37,10.3-5.63a25,25,0,0,0,.43,4.76h3.92a23.24,23.24,0,0,1-.59-5.28V109.67Z" transform="translate(0 0)"/><polygon class="cls-2" points="109.5 101.41 101.42 126.59 93.26 101.41 88.67 101.41 99.22 131.14 103.54 131.14 113.73 101.41 113.38 101.41 109.5 101.41 109.5 101.41"/><path class="cls-2" d="M117.69,90.81a2.73,2.73,0,1,0,0,5.45,2.73,2.73,0,1,0,0-5.45Z" transform="translate(0 0)"/><polygon class="cls-2" points="115.68 101.41 115.68 131.14 119.81 131.14 119.81 101.41 119.54 101.41 115.68 101.41 115.68 101.41"/><polygon class="cls-2" points="123.86 90.14 123.86 131.14 127.99 131.14 127.99 90.14 127.72 90.14 123.86 90.14 123.86 90.14"/><polygon class="cls-2" points="131.95 90.14 131.95 131.14 136.08 131.14 136.08 90.14 135.81 90.14 131.95 90.14 131.95 90.14"/><path class="cls-2" d="M143.29,108.88c0-3.52,3.61-4.83,6.77-4.83,4.39,0,7.13,2.28,7.13,6.15v.26h3.95v-.26c0-6-4.36-9.68-10.87-9.68-5.45,0-11,2.64-11,8.53,0,11.71,18.91,5.9,18.91,14.08,0,4.23-5.09,5.37-7.72,5.37-4.84,0-8.18-2.64-8.18-7.12v-.19h-4v.27c0,6.86,4.89,10.55,12.18,10.55,5.81,0,11.65-2.81,11.65-9,0-11.79-18.91-6.43-18.91-14.08Z" transform="translate(0 0)"/><text class="cls-3" transform="translate(22.37 167.62)">0141 222 5869</text></g></g></svg>